<svg xmlns="http://www.w3.org/2000/svg" width="16" height="16" viewBox="0 0 16 16">
    <g fill="none" fill-rule="evenodd">
        <g>
            <g transform="translate(-779 -253) translate(779 253)">
                <circle cx="8" cy="8" r="8" fill="#E5E7EA"/>
                <path fill="#323232" d="M8.021 10.472c.495 0 .896.342.896.764s-.4.764-.896.764c-.494 0-.896-.342-.896-.764s.402-.764.896-.764zM7.913 4l.22.003c1.344.039 2.464 1.005 2.532 2.184.044.966-.628 1.874-1.68 2.24-.247.078-.426.33-.426.58v.31h-1.12v-.31c0-.656.47-1.255 1.142-1.487.605-.213.986-.754.964-1.314C9.5 5.51 8.873 4.97 8.066 4.97c-.425-.02-.829.116-1.142.367-.291.252-.47.6-.47.966h-1.12c0-.637.29-1.217.828-1.661.538-.445 1.232-.676 1.971-.638z"/>
            </g>
        </g>
    </g>
</svg>
