<svg xmlns="http://www.w3.org/2000/svg" xmlns:xlink="http://www.w3.org/1999/xlink" width="267" height="155" viewBox="0 0 267 155">
    <defs>
        <path id="a" d="M.083.029H6.6v4.808H.083V.03z"/>
    </defs>
    <g fill="none" fill-rule="evenodd">
        <path fill="#DEF6FE" d="M260.194 60.03c-.482 0-.953.053-1.407.149.257-1.122.435-2.289.435-3.554 0-9.469-7.58-16.982-16.92-16.982-1.96 0-3.83.437-5.578 1.055C233.348 30.95 224.194 24 213.424 24c-12.874 0-23.44 10.011-24.586 22.764a13.803 13.803 0 0 0-5.742-1.243c-7.787 0-14.096 7.12-14.096 15.013 0 6.565 4.376 11.04 10.327 14.466h82.688c2.872 0 4.985-4.184 4.985-7.353 0-3.81-3.046-7.617-6.806-7.617M137.224 35h27.448c3.003-1.844 5.23-3.639 5.23-6.873 0-3.818-3.1-7.003-6.92-7.003-.802 0-1.566.098-2.281.348-1.382-3.93-5.126-6.771-9.53-6.771-5.266 0-9.588 4.017-10.057 9.158a5.715 5.715 0 0 0-2.349-.51c-3.184 0-5.765 2.753-5.765 5.936 0 2.646 1.79 3.871 4.224 5.715"/>
        <g transform="translate(70 26)">
            <rect width="5" height="119" x="3" y="9" fill="#BCD748" fill-rule="nonzero" rx="2.5"/>
            <path fill="#00B938" fill-rule="nonzero" d="M56 34h59v53H56z"/>
            <path fill="#00882A" fill-rule="nonzero" d="M56 71h33L56 87z"/>
            <path fill="#00C73C" fill-rule="nonzero" d="M8 18h81v53H8z"/>
            <path fill="#FFF" d="M45.138 50.836c-1.686 0-3.053-1.338-3.053-2.99 0-1.651 1.367-2.99 3.053-2.99 1.685 0 3.052 1.339 3.052 2.99 0 1.652-1.367 2.99-3.052 2.99zm3.288-8.927v.877a6.313 6.313 0 0 0-3.523-1.065c-3.453 0-6.252 2.743-6.252 6.125 0 3.383 2.8 6.125 6.252 6.125 1.307 0 2.52-.393 3.523-1.065v.878h3.198V41.91h-3.198zM66.259 46.604c0-1.27 1.16-2.058 2.593-2.058 1.432 0 2.594.789 2.594 2.058v.003h-5.187v-.003zm6.062 3.174c-.442.478-.993.82-1.47 1.038-.419.193-1.006.331-1.557.331-.31 0-.805-.032-1.254-.18a2.919 2.919 0 0 1-.959-.5 2.13 2.13 0 0 1-.821-1.656h8.743c.03-.34.045-.605.045-.794 0-1.882-.65-3.306-1.755-4.442a6.216 6.216 0 0 0-4.435-1.854 6.194 6.194 0 0 0-4.387 1.794 6.08 6.08 0 0 0-1.815 4.32 6.06 6.06 0 0 0 1.849 4.375 6.328 6.328 0 0 0 1.936 1.278c.762.32 1.673.483 2.504.483 1.067 0 2.034-.12 2.99-.531.986-.423 1.785-.945 2.537-1.796l-2.151-1.866zM54.394 53.783V41.905 40.45c0-.494.078-1.325.356-2.049.266-.695.738-1.317 1.087-1.677.898-.925 2.389-1.573 3.892-1.573h2.24v3.076s-.895.025-1.3.025c-1.02 0-1.704.5-1.94.755-.425.464-.757 1.013-.757 1.918v.98h3.746v3.281h-3.747v8.597h-3.577zM30.22 49.99c-2.868 0-5.192-2.298-5.192-5.132 0-2.834 2.324-5.132 5.191-5.132 1.71 0 3.227.818 4.173 2.08l3.039-2.625a9.241 9.241 0 0 0-7.212-3.437c-5.091 0-9.219 4.08-9.219 9.114 0 5.033 4.128 9.113 9.22 9.113a9.241 9.241 0 0 0 7.211-3.436l-3.039-2.625a5.203 5.203 0 0 1-4.173 2.08"/>
            <g transform="translate(65.693 35.122)">
                <mask id="b" fill="#fff">
                    <use xlink:href="#a"/>
                </mask>
                <path fill="#FFF" d="M6.601.028H5.233c-3.19 0-5.15 1.69-5.15 4.81H1.45c3.164 0 5.151-1.63 5.151-4.81" mask="url(#b)"/>
            </g>
        </g>
        <path fill="#DEF6FE" d="M54.055 109.924a9.58 9.58 0 0 0 .262-2.154c0-5.738-4.563-10.29-10.186-10.29-1.18 0-2.306.264-3.358.639C38.74 92.212 33.229 88 26.745 88c-7.75 0-14.112 6.066-14.802 13.794a8.265 8.265 0 0 0-3.457-.753c-4.688 0-8.486 4.315-8.486 9.098 0 3.978 2.635 6.69 6.217 8.766H55.999c1.729 0 3.001-2.536 3.001-4.456 0-2.309-1.834-4.615-4.097-4.615-.29 0-.574.031-.848.09z"/>
    </g>
</svg>
